<svg version="1.2" xmlns="http://www.w3.org/2000/svg" viewBox="0 0 70 76" width="70" height="76">
	<title>icons8-bash-svg</title>
	<style>
		.s0 { fill: #fefdef } 
		.s1 { fill: #444445 } 
		.s2 { fill: #4da925 } 
		.s3 { fill: #1f212b } 
	</style>
	<path id="Layer" class="s0" d="m62.8 58.9l-23.6 13.6c-2.6 1.5-5.8 1.5-8.4 0l-23.6-13.6c-2.6-1.5-4.2-4.3-4.2-7.3v-27.2c0-3 1.6-5.8 4.2-7.3l23.6-13.6c2.6-1.5 5.8-1.5 8.4 0l23.6 13.6c2.6 1.5 4.2 4.3 4.2 7.3v27.2c0 3-1.6 5.8-4.2 7.3z"/>
	<path id="Layer" class="s1" d="m66 23.8v31.8q-0.8 1.4-2 2.5l-25.5 14.1c-1.6 0.9-3.5-0.3-3.5-2.1v-30c0-2.4 1.3-4.5 3.3-5.7l23.5-13c1.9-1.1 4.2 0.3 4.2 2.4z"/>
	<path id="Layer" class="s0" d="m45.1 40.8c0.2-0.1 0.3 0 0.3 0.2l0.1 2.1q1.2-0.5 2.2-0.3c0.2 0 0.2 0.2 0.2 0.5l-0.5 1.8q0 0.2-0.2 0.3-0.1 0.1-0.1 0.1-0.1 0-0.2 0c-0.3 0-1-0.2-2.1 0.4-1.2 0.6-1.7 1.6-1.6 2.4 0 0.9 0.4 1.2 2.1 1.2 2.1 0 3.1 1 3.1 3.2 0 2.1-1.1 4.4-2.9 5.8l0.1 2c0 0.3-0.2 0.6-0.4 0.7l-1.2 0.6c-0.2 0.1-0.3 0-0.3-0.2v-2c-1.1 0.4-2.1 0.5-2.7 0.3-0.2-0.1-0.2-0.3-0.2-0.5l0.5-1.8q0-0.2 0.2-0.4 0 0 0.1 0 0.1-0.1 0.2-0.1c0.7 0.3 1.6 0.2 2.5-0.3 1.1-0.5 1.8-1.7 1.8-2.8 0-1-0.6-1.4-1.9-1.4-1.7 0-3.3-0.4-3.3-2.9-0.1-2 1-4.2 2.7-5.5v-2.1c0-0.2 0.1-0.5 0.3-0.6z"/>
	<path id="Layer" class="s2" d="m56.6 56.6l-5.7 3.2c-0.1 0.1-0.3 0-0.3-0.1v-1.3q0-0.1 0.2-0.2l5.7-3.2c0.1-0.1 0.2 0 0.2 0.1v1.3q0 0.1-0.1 0.2z"/>
	<path id="Layer" class="s3" d="m29 66.2q-0.1 0-0.3-0.1l-1.9-1.1c-0.3-0.1-0.4-0.5-0.2-0.7 0.1-0.2 0.4-0.3 0.6-0.2l2 1.2c0.3 0.1 0.4 0.4 0.2 0.7-0.1 0.1-0.2 0.2-0.4 0.2zm-4-2.3q-0.1 0-0.3-0.1l-11-6.4c-0.3-0.1-0.4-0.4-0.2-0.7 0.1-0.2 0.4-0.3 0.7-0.1l11.1 6.4c0.2 0.1 0.3 0.4 0.1 0.7-0.1 0.1-0.2 0.2-0.4 0.2zm-13-7.5q-0.1 0-0.2-0.1l-2.2-1.2c-1.3-0.7-2.1-2.2-2.1-3.7v-17.4c0-0.3 0.2-0.5 0.5-0.5 0.3 0 0.5 0.2 0.5 0.5v17.4c0 1.2 0.6 2.3 1.6 2.8l2.2 1.3c0.2 0.1 0.3 0.4 0.1 0.6-0.1 0.2-0.2 0.3-0.4 0.3zm-4-23.9c-0.3 0-0.5-0.2-0.5-0.5v-3c0-0.3 0.2-0.5 0.5-0.5 0.3 0 0.5 0.2 0.5 0.5v3c0 0.3-0.2 0.5-0.5 0.5zm0-5c-0.3 0-0.5-0.2-0.5-0.5v-2.4c0-0.3 0.2-0.5 0.5-0.5 0.3 0 0.5 0.2 0.5 0.5v2.4c0 0.3-0.2 0.5-0.5 0.5z"/>
	<path id="Layer" fill-rule="evenodd" class="s3" d="m67.5 24.6v26.8c0 3.3-1.8 6.4-4.6 8l-23.3 13.4c-1.4 0.9-3 1.3-4.6 1.3-1.6 0-3.2-0.4-4.6-1.3l-23.3-13.4c-2.8-1.6-4.6-4.7-4.6-8v-26.8c0-3.3 1.8-6.4 4.6-8l23.3-13.4c2.8-1.7 6.4-1.7 9.2 0l23.3 13.4c2.8 1.6 4.6 4.7 4.6 8zm-32.2 47.5c-0.5-0.6-0.8-1.2-0.8-2v-30c0-2.5 1.4-4.9 3.6-6.1l23.5-13.1c0.9-0.5 1.9-0.5 2.8-0.1-0.6-1-1.5-1.9-2.5-2.5l-23.3-13.4c-1.1-0.7-2.3-1-3.6-1-1.3 0-2.5 0.3-3.6 1l-23.3 13.4c-2.2 1.3-3.6 3.7-3.6 6.3v26.8c0 2.6 1.4 5 3.6 6.3l23.3 13.4c1.1 0.7 2.5 1 3.9 1zm30.2-20.7v-26.8q0-0.9-0.2-1.8c-0.2-0.4-0.5-0.7-0.9-1q-0.6-0.3-1.2-0.3-0.6 0-1.1 0.3l-23.5 13c-1.9 1.1-3.1 3.1-3.1 5.3v30c0 0.7 0.3 1.3 0.9 1.6q0.2 0.1 0.3 0.2 1-0.3 1.9-0.8l23.3-13.4c2.2-1.3 3.6-3.7 3.6-6.3z"/>
</svg>